<svg xmlns="http://www.w3.org/2000/svg" width="1280" viewBox="0 0 960 540" height="720" version="1.0"><defs><clipPath id="a"><path d="M1 0h958v539H1Zm0 0"/></clipPath><clipPath id="b"><path d="M714 95h134v261H714Zm0 0"/></clipPath></defs><g clip-path="url(#a)" fill="#FFF"><path d="M1 0h958v539H1Zm0 0"/><path d="M1 0h958v539H1Zm0 0"/><path d="M1 0h958v539H1Zm0 0"/></g><path fill="#1A446F" d="M761 233s-7 4 5 6c14 1 22 1 37-2l10 5c-35 15-79-1-52-9Zm-4-19s-8 5 4 7c15 1 27 1 48-3 0 0 2 3 7 5-42 12-90 1-59-9Zm82 34s5 4-5 7c-20 6-84 8-102 0-7-2 5-6 9-7l6-1c-7-5-46 10-20 14 72 12 131-5 112-13Zm-75-55s-32 8-11 11h43l27-4-8 4c-33 9-97 5-79-4 16-8 28-7 28-7Zm59 33c33-17 18-34 7-32l-4 1s1-2 3-2c21-8 38 22-7 34l1-1Zm-55 47c32 2 81-1 83-16 0 0-3 6-27 10-27 5-62 5-82 1 0 0 5 4 26 5Zm0 0"/><g clip-path="url(#b)"><path fill="#80341C" d="M802 95s19 18-17 47c-29 23-7 36 0 51-17-15-30-29-21-41 12-19 46-28 38-57Zm-9 86c9 9-2 18-2 18s22-11 11-25c-9-14-16-20 23-43 0 0-61 16-32 50Zm-22 160v-29c0-8-4-13-15-13-6 0-11 2-15 4l1 5 12-2c6 0 8 2 8 7v4h-3c-14 0-21 5-21 14 0 7 5 11 13 11 5 0 9-2 13-5v4h7Zm-9-9c-3 2-6 4-9 4-4 0-6-3-6-7s2-7 12-7h3Zm37 9h-11l-12-41h9l8 25 1 8c4-11 7-22 8-33h9c-2 14-6 28-12 41Zm48 0v-29c0-8-4-13-14-13-6 0-11 2-16 4l1 5 13-2c5 0 8 2 8 7v4h-3c-14 0-21 5-21 14 0 7 4 11 12 11 6 0 10-2 13-5l1 4h6Zm-8-9c-3 2-6 4-9 4-4 0-7-3-7-7s3-7 12-7h4Zm-110 16c-2 4-6 6-10 8l-4-5c3-2 6-4 7-7l1-12v-46h9v46c0 9 0 13-3 16Zm0 0"/></g><path fill="#C1F9C1" d="M262 38a85 85 0 1 0 0 169 85 85 0 0 0 0-169"/><path fill="#F4F1F1" d="M431 38a85 85 0 1 0 0 169 85 85 0 0 0 0-169"/><path fill="#DBF4FF" d="M516 185a85 85 0 0 0 0 171c46 0 84-39 84-86s-38-85-84-85"/><path fill="#FFF5F5" d="M431 332a85 85 0 1 0 0 169 85 85 0 0 0 0-169"/><path fill="#EBF7E7" d="M262 332a85 85 0 1 0 0 169 85 85 0 0 0 0-169"/><path fill="#FFF6D1" d="M177 186a85 85 0 1 0 0 169 85 85 0 0 0 0-169"/><path fill="#FFF" d="M346 192a77 77 0 1 0 0 154 77 77 0 0 0 0-154"/><g fill="#0F0E0C"><path d="M193 124v7h-2v-17h6l4 1 2 4-2 4-4 1Zm0-2h7l1-3-1-2-3-1h-4ZM205 124v-3a5 5 0 0 1 5-3l5 2 1 5v3a5 5 0 0 1-6 3c-1 0-3 0-4-2l-1-4Zm2 1 1 3 2 1 3-1 1-4-1-3-3-1-2 1-1 4ZM221 131h-2v-18h2ZM229 128l3-10h2l-5 15c-1 2-2 3-4 3h-1v-2h2l1-2 1-1-5-13h3ZM247 125l-2 4c0 2-2 2-3 2l-4-1v6h-2v-18h2v2l4-2 3 2 2 5Zm-2-1-1-3-3-1c-1 0-2 0-3 2v6l3 1 3-1 1-4ZM249 124l1-3a5 5 0 0 1 5-3l4 2 1 5v3a5 5 0 0 1-5 3c-2 0-3 0-4-2-2-1-2-2-2-4Zm2 1 1 3 3 1 2-1 1-4-1-3-2-1-3 1-1 4ZM269 120h-1l-3 2v9h-2v-13h2v2a3 3 0 0 1 4-2ZM282 125l-1 4c-1 2-2 2-4 2l-4-1v6h-2v-18h2v2l4-2 4 2 1 5Zm-2-1-1-3-3-1c-1 0-2 0-3 2v6l3 1 3-1 1-4ZM287 120l4-2c2 0 4 2 4 5v8h-2v-8l-1-2-2-1h-2l-1 2v9h-2v-18h2ZM300 131h-2v-13h2Zm-2-16v-1h2l1 1-1 1h-2v-1ZM311 128l-1-2-2-1h-2l-2-2v-1l1-3 3-1 4 1 1 3h-2l-1-2h-4v3l3 1h2l2 2v1l-1 3-4 1h-2l-2-2-1-2h2l1 2h4l1-1ZM318 118v2l4-2 4 2 1-1 3-1c2 0 4 2 4 4v9h-2v-8l-1-2-2-1-2 1-1 2v8h-2v-8c0-2-1-3-3-3-1 0-2 0-3 2v9h-2v-13Zm0 0"/></g><g fill="#0F0E0C"><path d="M376 131h-2v-17h2ZM382 118v2l4-2c2 0 4 2 4 5v8h-2v-8l-1-2-2-1h-2l-1 2v9h-2v-13ZM395 120l4-2c3 0 4 2 4 5v8h-2v-8l-1-2-2-1h-1l-2 2v9h-2v-18h2ZM412 131c-2 0-4 0-5-2l-1-4v-4l2-2 3-1 4 2 1 4v1h-8l1 3 3 1h2l1-1 1 1-4 2Zm-1-11-2 1-1 2h6l-1-2-2-1ZM425 120h-1l-3 2v9h-2v-13h2v2a3 3 0 0 1 4-2ZM429 131h-2v-13h2Zm-2-16v-1h2l1 1-1 1h-2v-1ZM436 115v3h2v2h-2v9h2v2h-1l-3-1v-10h-3v-2h3v-3ZM449 131l-1-1-3 1-3-1c-1-1-2-1-2-3l2-3 4-1h2v-3h-4l-1 2h-2v-2l2-1 3-1 3 1 1 3v6l1 3Zm-4-2h2l1-2v-2h-1c-3 0-4 1-4 2v2h2ZM456 118v2l4-2c2 0 4 2 4 5v8h-2v-8l-1-2-2-1h-2l-1 2v9h-2v-13ZM472 129h2l1-2h2l-1 2-2 2h-2c-2 0-3 0-4-2l-2-4v-1l1-3 2-2 3-1 4 1 1 4h-2a3 3 0 0 0-3-3l-3 1v7l3 1ZM485 131c-2 0-3 0-4-2l-2-4 1-4 2-2 3-1 3 2 2 4v1h-9l1 3 3 1h2l1-1 2 1-5 2Zm0-11-3 1-1 2h7l-1-2-2-1Zm0 0"/></g><g fill="#0F0E0C"><path d="M452 270h-7v6h8v2h-11v-17h11v1h-8v6h7ZM458 265v2c1-2 2-2 4-2s4 1 4 4v9h-3v-11h-4l-1 2v9h-2v-13ZM474 276l2-1 1-1h2l-1 2-2 1-2 1-4-2-2-5 1-3 2-3h3l3 1 2 3h-2a3 3 0 0 0-3-3l-3 2-1 3 1 4 3 1ZM489 278v-2l-4 2-3-1-1-3 2-3 4-1h2v-1l-1-2-2-1-2 1-1 1h-2l1-1 2-2h2l4 1 1 3v9Zm-3-2 2-1 1-1v-3h-2c-3 0-4 1-4 3l1 1 2 1ZM505 271l-1 5-4 2-3-2v6h-3v-17h2v1l4-1 4 1 1 5Zm-2 0-1-3-2-1-3 1v6c0 1 1 2 3 2l2-1 1-4ZM515 274v-1l-3-1-2-1-2-1v-2l1-2 3-1 4 1 1 3h-2l-1-2-2-1-1 1-1 1 1 2h2l2 1 2 1v2l-1 3-4 1-2-1-2-1-1-2h2l1 1 2 1h2l1-2ZM528 276l-4 2-3-1-1-4v-8h2v8c0 2 1 3 3 3l3-2v-9h2v13h-2ZM536 278h-2v-18h2ZM547 278v-2l-4 2-3-1-1-3 1-3 5-1h2v-1l-1-2-2-1-2 1-1 1h-2l1-1 2-2h2l4 1 1 3v9Zm-4-2 2-1 2-1v-3h-2c-3 0-4 1-4 3l1 1 1 1ZM555 262v3h3v2h-3v9h3v2h-2l-2-1-1-3v-7h-2v-2h2v-3ZM562 278h-2v-13h2Zm-2-16v-1l1-1 1 1 1 1h-1l-1 1-1-1ZM565 271l1-3a5 5 0 0 1 5-3l4 1 2 5-1 4a5 5 0 0 1-5 3l-4-2-2-5Zm2 0 1 4 3 1 3-1 1-4-1-3-3-2-3 2-1 3ZM582 265v2c1-2 2-2 3-2 3 0 4 1 4 4v9h-2v-11h-4l-1 2v9h-2v-13Zm0 0"/></g><g fill="#0F0E0C"><path d="m412 416-1 5-2 2-4 1-4-1-2-2-1-5v-1l1-4 2-3 4-1 4 1 2 3 1 4Zm-2-1-2-5-3-1-3 1-2 5v1l2 5 3 2c2 0 3-1 3-2l2-5ZM426 418l-2 5-3 1-4-1v1h-2v-18h2v7l4-2 3 2 2 5Zm-3 0v-4l-3-1-3 2v6l3 2 3-2v-3ZM431 412v14c0 2-2 3-4 3h-1v-2h2v-15Zm-3-4 1-1h1l1 1-1 1h-1l-1-1ZM439 424l-4-1-1-5v-4l2-2 3-1 4 2 1 5h-8l1 4 2 1 2-1 2-1 1 1c-1 2-3 2-5 2Zm0-11-2 1-1 3h6l-1-3-2-1ZM452 423l2-1 1-2h2l-1 2-2 2h-2l-4-1-2-5 1-4 2-2 3-1 3 2 2 3h-2a3 3 0 0 0-3-3l-3 1-1 4 1 3 3 2ZM462 408v4h3v1h-3v8l1 1 1 1 1-1v2h-4l-1-3v-8h-2v-1h2v-4Zm0 0"/></g><g fill="#0F0E0C"><path d="m247 419-2 4-5 1c-2 0-3 0-4-2-2-1-2-3-2-6v-1l1-4c0-2 1-2 2-3l4-1 4 1 2 5h-2l-2-3-2-1-4 1-1 5v2l1 4 3 2 3-1 2-3ZM252 424h-2v-18h2ZM263 424v-1l-4 1-3-1-1-2c0-2 1-3 2-3l4-1h2v-1l-1-2-2-1-2 1v1h-3l1-2 2-1 2-1 4 1 1 3v6l1 3Zm-3-1 2-1 1-1v-3h-2l-4 2 1 2 2 1ZM276 421l-1-2h-2l-3-1-1-1-1-2 2-3 3-1 4 1 1 3h-2l-1-1-2-1-2 1v2l2 1 3 1 2 1v2l-1 2-4 1h-3l-1-2-1-2h2l1 2 2 1 2-1 1-1ZM288 421v-2h-3l-2-1-2-1v-2l1-3 3-1 4 1 1 3h-2l-1-1-2-1-1 1-1 1 1 1 2 1 2 1 2 1v2l-1 2-3 1h-3l-2-2-1-2h2l1 2 3 1 1-1 1-1Zm0 0"/></g><g fill="#0F0E0C"><path d="M127 274h-7l-2 4h-2l7-17h1l7 17h-2Zm-6-2h5l-2-8ZM144 272l-2 5-3 2-4-2v1h-2v-18h2v7l4-2 3 2 2 5Zm-2 0-1-3-3-2-3 2v6l3 2 3-1 1-4ZM154 275l-1-1-2-1-3-1-1-1-1-2 2-2 3-2 3 2 2 2h-2l-1-1-2-1-2 1-1 1 1 1 2 1 3 1 1 1 1 2-1 3-4 1-3-1-1-1-1-3h2l1 2 2 1 2-1 1-1ZM162 263v3h2v1h-2v9l1 1h1v1l-2 1-2-1v-11h-3v-1h3v-3ZM173 268h-1l-3 1v9h-2v-12h2v1a3 3 0 0 1 4-1ZM182 278v-1l-3 2-3-1-2-3 2-3 4-1h2v-1l-1-2-2-1-1 1-1 1h-2v-2l2-1 3-1 3 2 1 3v5l1 3Zm-3-1 2-1 1-1v-3h-2c-2 0-4 1-4 3l1 1 2 1ZM193 277l2-1 1-2h2l-1 2-2 2-2 1-4-2-2-5 1-3 2-3 3-1 3 2 2 3h-2a3 3 0 0 0-3-3l-3 1-1 4 1 4 3 1ZM203 263v3h3v1h-3v8l1 1 1 1h1v1l-2 1-2-1-1-3v-8h-2v-1h2v-3ZM210 278h-2v-12h2Zm-2-16v-1h2l1 1-1 1-1 1-1-1v-1ZM213 272l1-3a5 5 0 0 1 5-4l4 2 2 5-1 3a5 5 0 0 1-5 4l-4-2-2-5Zm2 0 1 4 3 1 3-1 1-4-1-3-3-2-3 2-1 3ZM230 266v1l3-2c3 0 4 2 5 5v8h-3v-10l-2-1-2 1-1 1v9h-2v-12Zm0 0"/></g><path d="m325 265-1 6-3 3-5 2-5-2-3-3-1-6v-2l1-5 3-4 5-2 5 2 3 3 1 6Zm-3-2-1-6-5-2-4 2c-2 2-2 4-2 6v2c0 2 0 4 2 6l4 2 5-2 1-6ZM347 265l-1 6-3 3-5 2-5-2-3-3-1-6v-2l1-5 3-4 5-2 5 2 3 3 1 6Zm-3-2-1-6-5-2-4 2c-2 2-2 4-2 6v2l1 6 5 2 5-2 1-6ZM355 266v9h-3v-22h8c2 0 4 0 6 2l2 5-2 5-6 1Zm0-2h5l4-1 1-3-1-4-4-1h-5ZM378 265l-5-2-2-4 2-5 6-2 4 1 3 3 1 3h-3l-1-3-4-1-4 1-1 2 1 3 4 2 5 1 2 3 1 3-2 4-6 2-4-1-4-3-1-3h3l2 3 4 1 4-1 1-2-1-3-5-2Zm0 0" fill="#0F0E0C"/></svg>