<svg xmlns="http://www.w3.org/2000/svg" width="1280" viewBox="0 0 960 540" height="720" version="1.0"><defs><clipPath id="a"><path d="M1 0h958v539H1Zm0 0"/></clipPath><clipPath id="b"><path d="M72 130h284v267H72Zm0 0"/></clipPath></defs><g clip-path="url(#a)" fill="#FFF"><path d="M1 0h958v539H1Zm0 0"/><path d="M1 0h958v539H1Zm0 0"/><path d="M1 0h958v539H1Zm0 0"/></g><g clip-path="url(#b)"><path fill="#545454" d="M214 163a78 78 0 1 1 91 118 27 27 0 0 1-18 12l-4 1c-2 10-5 20-9 28l3 4c10 11 9 28-2 38l-9 9c-12 10-29 9-39-2l-3-4c-9 4-19 6-29 7l-1 4c-1 4-4 9-7 12-8 6-18 8-27 5l-12-4c-14-4-22-20-17-34l1-4a93 93 0 0 1-20-22l-4 1c-15 3-29-7-32-21l-3-13a27 27 0 0 1 21-32l4-1c2-10 5-19 10-28l-4-4c-9-11-9-28 2-38l10-9c11-10 28-9 38 2l3 4c9-4 19-6 29-6l1-5a27 27 0 0 1 27-18Zm-44 93a32 32 0 0 0-3 45 32 32 0 0 0 47-43 32 32 0 0 0-44-2Zm108 23a71 71 0 1 0 0-142 71 71 0 0 0 0 142Zm-21-97-22 27 22 28h-14l-22-28 22-27Zm36 0-16 55h-12l16-55Zm7 55 21-27-21-28h14l21 28-21 27Zm0 0"/></g><path d="M442 172a5 5 0 0 1 0 1 5 5 0 0 1-2 3 5 5 0 0 1-2 0 5 5 0 0 1-5-2 5 5 0 0 1 0-4 5 5 0 0 1 9 0 5 5 0 0 1 0 2ZM459 181v-23h7l5 2 3 3 2 6v1l-2 6c0 2-2 3-3 4l-5 1Zm3-20v18h3c3 0 5-1 6-3l2-6v-1l-2-6c-1-2-3-2-5-2ZM489 172h-6v9h-3v-23h8l6 2 2 5-1 4-4 2 6 10h-4Zm-6-3h5l3-1 2-3-2-3-3-1h-5ZM507 170l6-12h3l-8 14v9h-3v-9l-8-14h4ZM530 172v9h-3v-23h8l6 2c2 1 2 3 2 5s0 4-2 5l-6 2Zm0-2h5l4-2 1-3-1-3-3-1h-6ZM555 167h-2c-1 0-3 0-3 2v12h-3v-17h2l1 2 4-2h1ZM561 181h-3v-17h3Zm-4-21 1-2h2l1 2-1 1h-2l-1-1ZM568 164v2l5-2c4 0 5 2 5 6v11h-2v-11l-1-3-3-1-2 1-2 2v12h-3v-17ZM590 179l2-1 2-2h2l-1 2-2 2-3 1c-3 0-5 0-6-2l-2-6v-1l1-4a7 7 0 0 1 7-4l4 1c2 2 2 3 2 5h-2l-2-3-2-1-4 2-1 4v1l1 4 4 2ZM603 181h-3v-17h3Zm-3-21v-2h3v3h-3v-1ZM622 173l-2 6-5 2c-2 0-4 0-5-2v8h-3v-23h3v2c1-2 3-2 5-2l5 2 2 6Zm-3-1-2-4c0-1-1-2-3-2s-3 1-4 3v8l4 2c2 0 3-1 3-2 1-1 2-2 2-5ZM628 181h-3v-24h3ZM640 181c-2 0-4 0-6-2l-2-6v-1l1-4 3-3 4-1c2 0 4 0 5 2l2 6v1h-12l2 4 3 2 3-1 2-1 1 1c-1 2-3 3-6 3Zm0-15-3 1-2 4h9l-2-4-2-1ZM442 216a5 5 0 0 1 0 2 5 5 0 0 1-1 1 5 5 0 0 1-3 2 5 5 0 0 1-5-3 5 5 0 0 1-1-3 5 5 0 0 1 5-4 5 5 0 0 1 5 3 5 5 0 0 1 0 2ZM466 214l6-12h4l-8 15v8h-3v-8l-8-15h3ZM491 219h-10l-2 6h-3l9-23h3l8 23h-3Zm-9-2h8l-4-11ZM516 222l-3 3h-5l-5-1-3-4-1-5v-2c0-4 0-6 2-8s4-3 7-3l5 2c2 1 3 3 3 5h-3c0-3-2-4-5-4-2 0-4 0-5 2l-1 6v2l1 6 5 2h3l2-2v-5h-5v-2h8ZM538 225h-3l-11-17v17h-3v-23h3l12 18v-18h2ZM547 225h-3v-23h3ZM563 216v9h-3v-23h9l6 2 2 5c0 3-1 4-2 5-2 2-4 2-6 2Zm0-2h6l3-1 2-4-2-3-3-1h-6ZM588 211h-1l-4 2v12h-3v-17h3v2l4-2h1ZM594 225h-3v-17h3Zm-3-21v-1l2-1 1 1v2h-3v-1ZM601 208v2l6-2c3 0 5 2 5 6v11h-3v-11l-1-3-2-1-3 1-1 2v12h-3v-17ZM623 223l3-1 1-2h3l-1 3-3 2h-3c-2 0-4 0-5-2-2-1-2-3-2-6v-5a7 7 0 0 1 7-4l5 2 2 4h-3l-1-3-3-1-3 2-2 4v1l2 5 3 1ZM636 225h-3v-17h3Zm-3-21v-1l2-1 1 1v2h-3v-1ZM655 217l-2 6c-1 2-3 2-5 2s-3 0-4-2v9h-3v-24h2l1 2 4-2 5 2 2 7Zm-3 0-1-5-3-2c-2 0-4 1-4 3v8l4 2c1 0 2 0 3-2l1-4ZM662 225h-3v-24h3ZM673 225c-2 0-4 0-5-2-2-1-2-3-2-6l1-5 2-3 4-1 5 2 2 6v2h-11l1 4 4 1 2-1 2-1 2 1c-2 2-4 3-7 3Zm0-15-3 2-1 3h8l-1-3-3-2ZM442 260a5 5 0 0 1 0 2 5 5 0 0 1-1 1 5 5 0 0 1-3 2 5 5 0 0 1-5-2 5 5 0 0 1 1-7 5 5 0 0 1 2-1 5 5 0 0 1 5 2 5 5 0 0 1 1 2v1ZM462 267h11v2h-14v-22h3ZM486 269v-1l-5 2-4-2-1-3c0-2 0-4 2-4l5-2h3v-1l-1-3-3-1-2 1-1 2h-3l1-2 2-2 4-1 4 2 2 4v11Zm-4-2 2-1 2-1v-4h-2c-4 0-6 1-6 3l1 2 3 1ZM508 265l4-13h2l-4 17h-3l-4-12-4 12h-2l-5-17h3l3 13 4-13h2ZM525 261v-5l3-3 4-1 6 2 2 7-1 4a7 7 0 0 1-7 5c-2 0-4-1-5-3-2-1-2-3-2-6Zm2 0 2 5 3 1 4-1 1-5-1-5-4-2-3 2-2 5ZM545 269v-14h-3v-3h3v-1l1-5 4-1h2v3l-1-1-2 1-1 3v1h3v3h-3v14ZM563 269v-22h6l6 1 3 4 1 5v2l-1 5-3 4-6 1Zm3-20v18h3l5-2c2-2 2-4 2-6v-2l-1-6-6-2ZM590 270c-2 0-4-1-5-3-2-1-2-3-2-6l1-5 2-3 4-1 5 2 2 6v2h-11l1 4 4 1h2l2-2 2 1c-2 3-4 4-7 4Zm0-16-3 2-1 3h8l-1-3-3-2ZM603 252v2l5-2c3 0 4 1 5 3l2-2 3-1c4 0 6 2 6 6v11h-3v-11l-1-3h-2l-3 1-1 2v11h-3v-11c0-2-2-3-4-3s-3 0-4 2v12h-3v-17ZM635 270c-2 0-4-1-5-3-2-1-2-3-2-6l1-5 2-3 4-1 5 2 2 6v2h-12l2 4 3 1h3l2-2 2 1c-2 3-4 4-7 4Zm0-16-3 2-1 3h8l-1-3-3-2ZM649 248v4h3v3h-3v10l1 2h2v2l-2 1-3-2-1-3v-10h-3v-3h3v-4ZM663 270c-3 0-4-1-6-3l-2-6 1-5 3-3 3-1c3 0 4 1 5 2 2 2 2 4 2 6v2h-11l1 4 4 1h2l2-2 2 1c-1 3-3 4-6 4Zm-1-16-3 2-1 3h8l-1-3c-1-1-1-2-3-2ZM681 255h-2l-4 2v12h-2v-17h2v2l4-2h2ZM442 304a5 5 0 0 1 0 2 5 5 0 0 1-1 2 5 5 0 0 1-3 1 5 5 0 0 1-5-2 5 5 0 0 1 1-7 5 5 0 0 1 2-1 5 5 0 0 1 5 2 5 5 0 0 1 1 2v1ZM466 303l-6-2-1-4c0-2 0-4 2-5l5-2 4 1 3 3 1 3h-3l-1-3-4-1-3 1-1 3 1 2 4 2 4 1 3 3v3c0 2 0 3-2 4l-6 2-4-1-3-3-1-3h3l1 3 4 1 4-1 1-2-1-3-4-2ZM496 303l-1 6c-1 1-2 3-4 3l-4 2-5-2c-2 0-3-2-3-3l-2-6v-2l2-5c0-2 1-3 3-4l5-2 4 2 4 4 1 5Zm-3-2-2-6-4-2-5 2-2 6v2l2 6 5 2c2 0 3 0 4-2l2-6ZM503 311h11v2h-14v-22h3ZM521 313h-3v-22h3ZM526 313v-22h6l6 1 3 4 1 5v2l-1 5-3 4-6 1Zm3-20v18h3l6-2 2-6v-2l-2-6-5-2ZM558 305v8h-3v-22h8c3 0 5 0 6 2 2 1 2 3 2 5s0 4-2 5l-6 2Zm0-3h5l4-1 1-3-1-4-4-1h-5ZM583 299h-2l-4 2v12h-2v-16h2v2l4-3h2ZM589 313h-3v-16h3Zm-4-21 1-1 1-1 1 1 1 1-1 1-1 1-1-1-1-1ZM596 297v2c1-2 3-3 5-3 4 0 5 2 5 6v11h-2v-11l-1-2-3-1h-2l-2 2v12h-3v-16ZM618 311l2-1 2-2h2l-1 3-2 2-3 1c-3 0-5-1-6-3l-2-6 1-5a7 7 0 0 1 7-4l4 2 2 4h-2l-2-2-2-1-4 1-1 5 1 5 4 1ZM631 313h-3v-16h3Zm-3-21v-1l1-1 1 1 1 1-1 1-1 1-1-1v-1ZM649 305l-1 6c-1 2-3 3-5 3l-5-2v8h-3v-23h3v1l5-2c2 0 4 1 5 3l1 6Zm-2 0-2-5-3-1-4 2v8c1 2 2 2 4 2l3-1 2-5ZM656 313h-3v-23h3ZM668 314l-6-2-2-7 1-5 3-3 4-1 5 2 1 7v1h-11l1 4 4 1h3l1-2 2 2c-1 2-3 3-6 3Zm0-15-3 1-2 3h9l-2-3-2-1ZM688 309l-1-2-3-1-4-1-2-2v-2l1-3 5-2 5 2 1 4h-3l-1-2-2-1h-3v4l3 1 4 1 2 1 1 3-2 3-5 2-4-1-2-2-1-3h3l1 3h6l1-2ZM442 348a5 5 0 0 1 0 2 5 5 0 0 1-1 2 5 5 0 0 1-3 1 5 5 0 0 1-5-2 5 5 0 0 1 1-7 5 5 0 0 1 2 0 5 5 0 0 1 5 2 5 5 0 0 1 1 1v1ZM466 348l-6-3-1-4c0-2 0-3 2-5l5-1 4 1c2 0 3 1 3 2l1 3h-3l-1-3-4-1-3 1-1 3 1 2 4 2 4 2 3 2v3c0 2 0 3-2 4l-6 2-4-1-3-2-1-4h3l1 3 4 1h4l1-3-1-3-4-1ZM485 358l-6-2-2-6v-1l1-4 3-3 3-2c3 0 4 1 6 3l1 6v1h-11l1 4 4 2 3-1 1-2 2 2c-1 2-3 3-6 3Zm-1-15-3 1-1 4h8v-1l-1-3-3-1ZM509 349l-2 7-5 2-4-2v8h-3v-23h2v2c2-2 3-3 5-3s4 1 5 3l2 6Zm-3 0-1-4c-1-2-2-2-3-2l-4 2v8c0 2 2 3 4 3l3-2 1-5ZM520 358l-6-2-2-6v-1l1-4c0-2 1-3 3-3l3-2c2 0 4 1 5 3 2 1 2 3 2 6v1h-11l1 4 4 2 2-1 2-2 2 2c-1 2-4 3-6 3Zm-1-15-3 1-1 4h8v-1l-1-3-3-1ZM538 343h-2c-2 0-3 1-4 3v12h-2v-17h2v2l4-3 2 1ZM551 358l-1-2-4 2-5-1-1-4 2-4 5-2h3v-1l-1-2-2-1-3 1-1 1h-3l1-2 3-2 3-1 4 2c2 1 2 2 2 4v8l1 3v1Zm-5-3h3l1-2v-4h-2c-4 0-5 1-5 4l1 2h2ZM562 337v4h3v2h-3v12h3v3h-2l-3-1-1-4v-10h-3v-2h3v-4ZM571 358h-3v-17h3Zm-3-22 1-1h2l1 1-1 1-1 1-1-1-1-1ZM575 349l1-4 3-3 4-2c2 0 4 1 5 3 2 1 2 4 2 6v5a7 7 0 0 1-7 4l-6-2-2-7Zm3 0 1 5 4 2 3-2 2-5-2-4c-1-2-2-2-3-2-2 0-3 0-4 2l-1 4ZM597 341v2c1-2 3-3 5-3 4 0 5 2 5 6v12h-3v-14l-3-1-2 1-2 2v12h-3v-17ZM619 349l1-4c0-2 1-3 3-3l4-2c2 0 4 1 5 3 2 1 2 4 2 6l-1 5a7 7 0 0 1-6 4l-6-2-2-7Zm3 0 1 5 4 2 3-2 1-5-1-4c-1-2-2-2-3-2-2 0-3 0-4 2l-1 4ZM639 358v-15h-2v-2h2v-2l2-4 4-2 2 1v2h-2l-2 1-1 2v2h4v2h-4v15ZM674 350c0 3-1 5-3 6l-6 2-6-3c-2-2-2-4-2-8v-2l1-5a8 8 0 0 1 8-5c2 0 4 0 5 2 2 1 3 3 3 5h-3l-2-4-3-1-5 2-1 6v2l1 6c1 2 3 2 4 2l4-1 2-4ZM677 349l1-4c0-2 1-3 3-3l4-2c2 0 4 1 5 3l2 6-1 5a7 7 0 0 1-6 4l-6-2-2-7Zm3 0 1 5 4 2 3-2 1-5-1-4c-1-2-2-2-3-2-2 0-3 0-4 2l-1 4ZM699 341v2c1-2 3-3 5-3 3 0 5 2 5 6v12h-3v-12l-1-2-2-1-3 1-1 2v12h-3v-17ZM720 356l3-1 1-3h3l-1 3-3 2-3 1-5-2c-2-2-2-4-2-7l1-5a7 7 0 0 1 6-4l5 2 2 5h-3l-1-3-3-1-3 1-1 5v1l1 4 3 2ZM737 358l-5-2-3-6v-1l1-4 3-3 4-2c2 0 4 1 5 3l2 6v1h-12l2 4 3 2 3-1 2-2 2 2c-2 2-4 3-7 3Zm0-15-3 1-2 4h9v-1l-1-3-3-1ZM755 343h-1c-2 0-3 1-4 3v12h-3v-17h3v2c1-2 2-3 4-3l1 1ZM761 341v2c1-2 3-3 5-3 3 0 5 2 5 6v12h-3v-12l-1-2-2-1-3 1-1 2v12h-3v-17ZM442 392a5 5 0 0 1 0 2 5 5 0 0 1-1 2 5 5 0 0 1-5 1 5 5 0 0 1-2-1 5 5 0 0 1-2-3 5 5 0 0 1 5-5 5 5 0 0 1 5 3 5 5 0 0 1 0 1ZM472 396h-10l-2 6h-3l9-23h2l9 23h-3Zm-9-3h8l-4-10ZM485 398l4-13h3l-6 17h-2l-6-17h3ZM494 393l1-4 3-3 4-1c2 0 4 0 6 2l2 6v1l-1 4a7 7 0 0 1-7 4l-6-2-2-7Zm3 1 2 4 3 2 4-2 1-5-1-4-4-2-3 2c-1 1-2 2-2 5ZM516 402h-2v-17h2Zm-3-22 1-1h2l1 1-1 2h-2l-1-2ZM520 393l2-6c1-2 3-2 5-2s4 0 5 2v-9h3v24h-3v-2l-5 2-5-2-2-7Zm3 1 1 4 4 2c2 0 3-1 4-3v-8l-4-2-4 2-1 5ZM550 393v9h-3v-23h9l6 2 2 5-2 5-6 2Zm0-3h6l4-1 1-3-1-3-4-1h-6ZM575 388l-1-1c-2 0-3 1-4 3v12h-3v-17h3v2c1-2 2-2 4-2h1ZM585 402l-6-2-2-6v-1l1-4 3-3 4-1c2 0 3 0 5 2l2 6v1h-12l2 4 3 2 3-1 2-2 1 2c-1 2-3 3-6 3Zm0-15-3 1-2 4h9l-2-4-2-1ZM598 385v2c1-2 3-2 5-2l4 2 3-2h3c4 0 5 2 6 5v12h-3v-11l-1-3-3-1-3 1-1 3v11h-3v-11c0-3-1-4-3-4l-4 2v13h-3v-17ZM633 402v-2l-5 2-4-1-2-4 2-4 6-1h3v-2l-1-2-3-1-2 1-1 2h-3l1-3 2-2h3l5 1 2 4v12Zm-5-2 3-1 2-2v-3h-2c-4 0-6 1-6 3l1 2 2 1ZM644 381v4h3v2h-3v11l1 1 1 1 1-1v3h-2l-3-1-1-3v-11h-3v-2h3v-4ZM661 400l-5 2-4-1-1-5v-11h2v11c0 2 2 4 4 4s3-1 4-3v-12h3v17h-3ZM676 388l-1-1c-2 0-3 1-4 3v12h-3v-17h3v2c1-2 2-2 4-2h1ZM686 402l-6-2-2-6v-1l1-4 3-3 4-1c2 0 4 0 5 2l2 6v1h-12l2 4 3 2 3-1 2-2 1 2c-1 2-3 3-6 3Zm0-15-3 1-2 4h9l-1-4-3-1ZM722 391l-1 6-3 4-5 1-5-1c-1-1-3-2-3-4l-1-6v-1l1-6c0-2 2-3 3-4l5-1 4 1 4 4 1 6Zm-3-1-2-6c-1-2-2-3-4-3s-4 1-5 3l-1 6v1l1 6c1 2 3 3 5 3s3-1 4-3l2-6ZM740 394c0 2 0 4-2 6l-4 2-5-2v8h-3v-23h2l1 2c1-2 2-2 5-2 2 0 3 0 4 2 2 1 2 4 2 6Zm-3-1-1-4-3-2-4 2v8c1 2 2 3 4 3l3-2 1-5ZM748 381v4h3v2h-3v12l2 1 1-1v3h-2l-3-1-1-3v-11h-3v-2h3v-4ZM757 402h-3v-17h3Zm-3-22 1-1h2l1 1-1 2h-2l-1-2ZM765 385v2c1-2 3-2 5-2l5 2 2-2h3c4 0 6 2 6 5v12h-3v-11l-1-3-3-1-3 1-1 3v11h-3v-11c0-3-1-4-3-4l-4 2v13h-3v-17ZM793 402h-3v-17h3Zm-3-22v-1h3v3h-3v-2ZM800 399h10v3h-13v-2l9-13h-9v-2h13v2ZM824 402v-2l-5 2-4-1-2-4 2-4 6-1h2v-4l-3-1-3 1-1 2h-3l1-3 3-2h3l5 1 1 4v8l1 4Zm-5-2 3-1 1-2v-3h-2c-3 0-5 1-5 3l1 2 2 1ZM835 381v4h3v2h-3v12l2 1 1-1v3h-2l-3-1-1-3v-11h-3v-2h3v-4ZM844 402h-2v-17h2Zm-3-22 1-1h2l1 1-1 2h-2l-1-2ZM848 393l1-4 3-3 4-1c2 0 4 0 6 2l2 6v1l-1 4a7 7 0 0 1-7 4l-6-2-2-7Zm3 1 1 4 4 2 3-2 2-5-2-4-3-2-3 2c-1 1-2 2-2 5ZM870 385v2c1-2 3-2 5-2 4 0 6 2 6 6v11h-3v-11l-1-3-3-1-2 1-2 2v12h-3v-17Zm0 0"/></svg>